<?xml version="1.0" standalone="no"?><!DOCTYPE svg PUBLIC "-//W3C//DTD SVG 1.1//EN" "http://www.w3.org/Graphics/SVG/1.1/DTD/svg11.dtd"><svg t="1513590447537" class="icon" style="" viewBox="0 0 1024 1024" version="1.1" xmlns="http://www.w3.org/2000/svg" p-id="9504" xmlns:xlink="http://www.w3.org/1999/xlink" width="16" height="16"><defs><style type="text/css"></style></defs><path d="M512 0C228.8 0 0 228.8 0 512s228.8 512 512 512 512-228.8 512-512S795.2 0 512 0z m0 832c-35.2 0-64-28.8-64-64s28.8-64 64-64 64 28.8 64 64-28.8 64-64 64z m64-320c0 35.2-28.8 64-64 64s-64-28.8-64-64V256c0-35.2 28.8-64 64-64s64 28.8 64 64v256z" p-id="9505" fill="#ffffff"></path></svg>